<svg width="80" height="80" viewBox="0 0 80 80" fill="none" xmlns="http://www.w3.org/2000/svg">
<path fill-rule="evenodd" clip-rule="evenodd" d="M18.64 56.68C18.2556 57.4115 17.6814 58.026 16.9775 58.4588C16.2737 58.8917 15.4662 59.127 14.64 59.14C13.4438 59.062 12.3222 58.5318 11.5026 57.6571C10.6831 56.7824 10.2271 55.6286 10.2271 54.43C10.2271 53.2313 10.6831 52.0775 11.5026 51.2028C12.3222 50.3281 13.4438 49.798 14.64 49.72C15.4718 49.7302 16.2847 49.9688 16.9901 50.4097C17.6955 50.8506 18.2662 51.4768 18.64 52.22C18.64 52.22 17.18 53.3 17.16 53.28C16.9504 52.7646 16.59 52.3247 16.1261 52.0177C15.6621 51.7108 15.1162 51.5512 14.56 51.56C13.7961 51.56 13.0636 51.8634 12.5235 52.4035C11.9834 52.9436 11.68 53.6761 11.68 54.44C11.68 55.2038 11.9834 55.9363 12.5235 56.4764C13.0636 57.0165 13.7961 57.32 14.56 57.32C15.0981 57.3166 15.6239 57.1583 16.0743 56.8639C16.5248 56.5695 16.8809 56.1515 17.1 55.66V55.56L18.64 56.68Z" fill="#161413"/>
<path fill-rule="evenodd" clip-rule="evenodd" d="M20.5599 49.8601H22.3199V53.1601H26.9599V49.8601H28.7399V59.0201H26.9599V55.0201H22.3199V59.0201H20.5599V49.8601Z" fill="#161413"/>
<path fill-rule="evenodd" clip-rule="evenodd" d="M53.6599 59.0201V49.8601H59.9999V51.7201H55.4399V53.5401H59.7199V55.3801H55.4399V57.2001H60.7199V59.0201H53.6599Z" fill="#161413"/>
<path fill-rule="evenodd" clip-rule="evenodd" d="M63.22 59.0201V49.8601H65.02V57.2001H70V59.0201H63.22Z" fill="#161413"/>
<path fill-rule="evenodd" clip-rule="evenodd" d="M44 59.0201H42.2V49.8601H44.7L48.7 55.3801V49.8601H50.4799V59.0201H49L44 52.1201V59.0201Z" fill="#161413"/>
<path fill-rule="evenodd" clip-rule="evenodd" d="M35.4799 51.7201L33.9999 55.3801H37.2199L35.4799 51.7201ZM33.0999 57.2001L32.2799 59.0201H30.1599L34.1599 49.8601H36.6399L40.6399 59.0201H38.6799L37.8599 57.2001H33.0999Z" fill="#161413"/>
<path fill-rule="evenodd" clip-rule="evenodd" d="M40.92 46.3401C38.8843 47.4979 36.5818 48.1045 34.24 48.1001C31.8533 48.0939 29.5095 47.4653 27.4401 46.2762C25.3707 45.0872 23.6472 43.3789 22.44 41.3201L24.44 40.3201L26.44 39.3401C27.2777 40.7069 28.4545 41.834 29.8562 42.6119C31.2579 43.3899 32.8369 43.7923 34.44 43.7801C35.4722 43.7798 36.4979 43.6179 37.48 43.3001C35.2747 40.8722 34.0366 37.7198 34 34.4401C33.9951 31.1985 35.1516 28.0623 37.26 25.6001C36.2937 25.2742 35.2797 25.112 34.26 25.1201C32.6404 25.1304 31.0513 25.5618 29.6488 26.3717C28.2462 27.1817 27.0784 28.3425 26.26 29.7401L22.4 27.7401C22.3893 27.7076 22.3893 27.6725 22.4 27.6401C23.5942 25.5431 25.3227 23.7999 27.4094 22.5879C29.4962 21.3759 31.8668 20.7383 34.28 20.7401C36.6249 20.7323 38.9299 21.3465 40.96 22.5201C42.9912 21.3492 45.2955 20.7352 47.64 20.7401C50.0532 20.7383 52.4238 21.3759 54.5105 22.5879C56.5973 23.7999 58.3257 25.5431 59.52 27.6401V27.7401L55.64 29.7401C54.8215 28.3425 53.6537 27.1817 52.2512 26.3717C50.8486 25.5618 49.2596 25.1304 47.64 25.1201C46.6202 25.112 45.6063 25.2742 44.64 25.6001C46.7483 28.0623 47.9049 31.1985 47.9 34.4401C47.9082 37.6894 46.7354 40.831 44.6 43.2801C45.582 43.5979 46.6078 43.7598 47.64 43.7601C49.242 43.7665 50.8188 43.3616 52.2195 42.5842C53.6202 41.8068 54.7979 40.6829 55.64 39.3201L57.64 40.3001L59.64 41.3001C58.4327 43.3589 56.7093 45.0672 54.6399 46.2562C52.5705 47.4453 50.2267 48.0739 47.84 48.0801C45.4191 48.1302 43.0292 47.5293 40.92 46.3401ZM40.92 40.9201C39.2587 39.1706 38.3287 36.8526 38.32 34.4401C38.3096 32.0475 39.244 29.7475 40.92 28.0401C42.596 29.7475 43.5304 32.0475 43.52 34.4401C43.5113 36.8526 42.5812 39.1706 40.92 40.9201Z" fill="#161413"/>
</svg>
