<svg width="150" height="150" viewBox="0 0 150 150" fill="none" xmlns="http://www.w3.org/2000/svg">
<path d="M124.219 35.1562L142.969 119.531L126.562 124.219L110.156 70.3125L107.812 126.562H44.5312L39.8438 75L23.4375 121.875L7.03125 119.531L25.7812 35.1562L56.25 25.7812V14.0625H93.75V25.7812L124.219 35.1562Z" fill="white"/>
<path d="M25.7812 45.2344L12.8906 107.578V107.812C12.8906 110.391 15.4688 112.5 18.5156 112.5C21.0938 112.5 23.2031 111.094 23.9062 109.219L37.7344 56.25L46.875 57.4219V112.5C46.875 117.656 55.3125 121.875 65.625 121.875H66.3281C86.7188 121.406 103.125 104.766 103.125 84.375H105.469V133.594H93.75V140.625H37.5V94.4531L27.8906 131.25L0 124.219L16.4062 43.3594C18.2812 34.4531 24.8438 27.4219 33.75 25.3125L51.5625 20.8594L56.25 9.375L75 28.125L93.75 9.375L98.4375 21.0938L89.0625 42.1875L75 28.125L60.9375 42.1875L55.3125 29.7656L36.0938 34.6875C30.7031 35.8594 26.7188 40.0781 25.7812 45.2344ZM120.703 89.0625H119.531L126.562 124.219L142.969 119.531L135.938 84.375H132.422C132.656 85.0781 132.656 85.7812 132.656 86.7188C132.656 90.7031 129.844 93.75 126.562 93.75C123.984 93.75 121.641 91.875 120.703 89.0625Z" fill="#ACBDC5"/>
<path d="M93.75 9.375L84.375 18.75H65.625L56.25 9.375H93.75ZM124.219 45.2344L138.984 117.422L128.672 120L112.266 56.25L103.125 57.4219V131.25H84.375V140.625H112.5V94.4531L122.109 131.25L150 124.219L133.594 43.3594C131.719 34.4531 125.156 27.4219 116.25 25.3125L98.4375 20.8594V21.0938L94.6875 29.7656L114.141 34.6875C119.297 35.8594 123.281 40.0781 124.219 45.2344ZM75 46.875C72.4219 46.875 70.3125 48.9844 70.3125 51.5625C70.3125 54.1406 72.4219 56.25 75 56.25C77.5781 56.25 79.6875 54.1406 79.6875 51.5625C79.6875 48.9844 77.5781 46.875 75 46.875ZM75 75C72.4219 75 70.3125 77.1094 70.3125 79.6875C70.3125 82.2656 72.4219 84.375 75 84.375C77.5781 84.375 79.6875 82.2656 79.6875 79.6875C79.6875 77.1094 77.5781 75 75 75ZM75 112.5C77.5781 112.5 79.6875 110.391 79.6875 107.812C79.6875 105.234 77.5781 103.125 75 103.125C72.4219 103.125 70.3125 105.234 70.3125 107.812C70.3125 110.391 72.4219 112.5 75 112.5Z" fill="#314A52"/>
</svg>
