<svg width="80" height="48" viewBox="0 0 80 48" fill="none" xmlns="http://www.w3.org/2000/svg">
<path d="M53.18 24C52.8833 24.22 52.53 24.4734 52.1 24.7767C49.3467 26.7267 45.3567 28.06 40.1667 28.06H39.82C34.6333 28.06 30.6367 26.7267 27.8867 24.7767C27.5253 24.5198 27.1652 24.2609 26.8067 24C27.1067 23.7767 27.46 23.5234 27.8867 23.22C30.6367 21.2734 34.6333 19.9367 39.82 19.9367H40.1667C45.3567 19.9367 49.3533 21.2734 52.1 23.22C52.53 23.52 52.88 23.7767 53.18 24ZM80 7.93669C80 7.93669 77.6367 6.13336 70.1667 3.38669C63.6067 0.983359 58.66 0.443359 58.66 0.443359L58.68 14.5867C58.68 16.58 58.14 18.3967 56.62 20.47C51.0467 18.4367 45.7733 17.1867 40.0167 17.1867C34.2567 17.1867 28.99 18.4367 23.4167 20.47C21.8933 18.4067 21.35 16.5767 21.35 14.5867L21.3733 0.443359C21.3733 0.443359 16.3933 0.976692 9.83 3.38669C2.36333 6.14003 0 7.93669 0 7.93669C0.31 14.3567 5.93333 20.0634 14.7833 24.0034C5.92333 27.9334 0.3 33.6234 0 40.06C0 40.06 2.36333 41.86 9.83 44.61C16.39 47.0134 21.34 47.5534 21.34 47.5534L21.3167 33.4067C21.3167 31.4167 21.8633 29.5967 23.38 27.5267C28.9533 29.56 34.22 30.8034 39.98 30.8034C45.7367 30.8034 51.01 29.5567 56.58 27.5267C58.1033 29.5934 58.6467 31.4167 58.6467 33.4067L58.6267 47.5534C58.6267 47.5534 63.5733 47.02 70.1333 44.61C77.6033 41.8567 79.9667 40.06 79.9667 40.06C79.6567 33.6367 74.0333 27.9267 65.1833 23.9967C74.04 20.0567 79.66 14.37 79.9667 7.93003" fill="black"/>
</svg>
