<svg width="80" height="34" viewBox="0 0 80 34" fill="none" xmlns="http://www.w3.org/2000/svg">
<path d="M28.54 0.333252L28.5467 0.353252L37.86 25.7566V1.65658H34.0267V1.42325H47.2267C53.57 1.42325 57.9967 4.67658 57.9967 9.33992C57.9967 12.7399 54.9633 15.5666 50.4533 16.3699L49.6233 16.4733L50.4567 16.5599C53.1933 16.8733 55.3667 17.7133 56.9067 19.0599L56.9167 19.0699L63.8033 0.333252H64.0367L64.0433 0.353252L75.8967 32.6799H80V32.9132H66.94V32.6799H70.7867L66.8867 22.0499H58.9767V22.0566L59.02 22.1799C59.3333 23.1166 59.4933 24.0999 59.4833 25.0899V29.0766C59.4833 31.1266 60.3867 33.2033 62.1167 33.2033C63.13 33.2033 63.94 32.8466 64.9067 31.9633L65.0433 32.0899C63.9967 33.1966 62.7267 33.6666 60.8233 33.6666C59.39 33.6666 58.1567 33.3199 57.17 32.6399L56.9833 32.5066C55.6833 31.5199 54.8367 29.9133 54.4733 27.7233L54.4133 27.3699L54.3533 26.8366L54.3467 26.7433L52.1667 32.6766H55.26V32.9099H48.7867V32.6766H51.9133L54.3067 26.1632V26.1466C54.2817 25.7626 54.2673 25.378 54.2633 24.9932V22.1466C54.2633 18.6499 51.6633 16.6466 47.13 16.6466H42.6733V32.6799H46.5333V32.9132H31.4433V32.6799H35.29L31.39 22.0499H20.5733L16.7133 32.5633L16.8733 32.5366C21.9433 31.6632 24.2733 27.7933 24.3067 23.7199H24.54V32.9132H0L18.2167 1.65658H10.8933C4.82 1.65658 2.07333 6.34658 2.03 11.0233H1.8V1.42325H23.9133L23.78 1.65658L5.69667 32.6799H15.21C15.4467 32.6799 15.68 32.6699 15.9167 32.6499L16.1567 32.6299L16.4567 32.5966L28.3033 0.333252H28.5367H28.54ZM61.4833 7.31659L57.1067 19.2366L57.13 19.2599L57.3533 19.4799C57.9967 20.1366 58.51 20.9133 58.86 21.7599L58.8833 21.8166H66.8L61.4833 7.31659ZM25.99 7.31659L20.66 21.8166H31.3067L25.99 7.31659ZM46.0767 1.65658H42.6767V16.4133H47.13C51.64 16.4133 53.02 14.7699 53.02 9.38992C53.02 4.33325 50.62 1.65658 46.0767 1.65658Z" fill="black"/>
</svg>
