<svg width="80" height="62" viewBox="0 0 80 62" fill="none" xmlns="http://www.w3.org/2000/svg">
<path d="M79.4833 1.02673C78.0933 -0.749933 75.6633 0.673401 74.5933 1.2934C66.98 5.78007 65.8567 13.6801 63.2033 18.2167C61.1167 21.8501 57.6967 24.5167 54.6033 24.7234C52.3167 24.8867 49.8367 24.4434 47.3767 23.3734C41.3533 20.7701 38.11 17.4001 37.32 16.8067C35.6967 15.5734 23.22 3.4234 13.0533 2.92673C13.0533 2.92673 11.8133 0.426734 11.5033 0.383401C10.7633 0.300067 10.0033 1.88673 9.44998 2.0534C8.94998 2.23007 8.07331 0.346734 7.56665 0.430067C7.05665 0.496734 6.55998 2.3834 5.56665 3.3534C4.83331 4.0634 3.94665 4.02007 3.44331 4.89673C3.26998 5.21673 3.32998 5.78007 3.13331 6.29673C2.70998 7.3634 1.29665 7.47673 1.28331 8.62007C1.28331 9.89007 2.47332 10.1334 3.51331 11.0201C4.33998 11.7267 4.39665 12.2267 5.35998 12.5567C6.21998 12.8501 7.46665 11.9334 8.57332 12.2634C9.49665 12.5334 10.3833 12.7301 10.58 13.6734C10.76 14.5267 10.58 15.8667 9.44665 15.7167C9.07332 15.6667 7.45332 15.1367 5.45332 15.3501C3.03665 15.6067 0.276648 16.3801 0.0066479 19.0501C-0.130019 20.5401 1.71998 22.2834 3.52331 21.9367C4.75998 21.7001 4.17665 20.2501 4.85331 19.5501C5.74331 18.6501 10.76 22.6967 15.4266 22.6967C17.4033 22.6967 18.8633 22.1967 20.3166 20.6801C20.45 20.5834 20.6266 20.3401 20.8333 20.3134C21.0651 20.3735 21.2849 20.4727 21.4833 20.6067C25.2533 23.5967 28.0966 29.6067 41.9166 29.6767C43.8567 29.7001 46.0833 30.6067 47.9033 32.2667C49.5033 33.7101 50.45 36.0167 51.36 38.3501C52.7533 41.8601 55.23 45.2467 59 49.0267C59.2 49.2534 62.3 51.6267 62.5333 51.8034C62.5733 51.8367 62.8133 52.3601 62.71 52.6534C62.6433 54.9534 62.3 61.5534 67.26 61.8301C68.48 61.8967 68.1767 61.0601 68.1767 60.4634C68.16 59.3267 67.96 58.1801 68.5533 56.9967C69.3967 55.4034 66.8 54.6334 66.8567 51.1434C66.92 48.5301 64.7066 48.9734 63.5767 46.9767C62.9433 45.8334 62.35 45.2034 62.41 43.8234C62.6533 35.8901 60.6866 30.6634 59.7267 29.4001C58.97 28.4201 58.3167 28.0567 59.0367 27.6001C63.17 24.8834 64.12 22.3534 64.12 22.3534C66.32 17.2167 68.3067 12.5367 71.0367 10.4534C71.59 10.0534 73 8.98673 73.8767 8.58673C76.42 7.38007 77.7867 6.66007 78.5033 5.96007C79.69 4.83673 80.62 2.45007 79.4833 1.02673Z" fill="black"/>
</svg>
