<svg width="80" height="24" viewBox="0 0 80 24" fill="none" xmlns="http://www.w3.org/2000/svg">
<path d="M49.97 10.2667C59.1467 6.60005 64.86 4.49338 80 0.800049C71.7767 1.34338 53.5933 2.59005 41.06 5.03672L49.97 10.27M21.4367 22.44H33.4367C35.8133 18.84 38.1767 17.0867 40.93 15.1367C38.8389 14.3282 36.7365 13.5492 34.6233 12.8C26.9667 16.18 22.7067 20.7167 21.4467 22.44M23.81 9.34672C13.11 13.17 7.16333 17.3234 3.14667 22.44H16.3967C17.6867 20.6434 22.6033 15.4634 31.84 11.86C29.1811 10.9631 26.506 10.1252 23.81 9.34672ZM29.3 1.29338H0C29.54 6.62671 43.7767 13.4934 66.6667 23.2C64.71 21.7367 33.1633 3.15671 29.3033 1.29338" fill="black"/>
</svg>
